<?xml version="1.0" standalone="no"?>
<!DOCTYPE svg PUBLIC "-//W3C//DTD SVG 20010904//EN"
 "http://www.w3.org/TR/2001/REC-SVG-20010904/DTD/svg10.dtd">
<svg version="1.0" xmlns="http://www.w3.org/2000/svg"
 width="250.000000pt" height="250.000000pt" viewBox="0 0 250.000000 250.000000"
 preserveAspectRatio="xMidYMid meet">
<metadata>
Created by potrace 1.16, written by Peter Selinger 2001-2019
</metadata>
<g transform="translate(0.000000,250.000000) scale(0.100000,-0.100000)"
fill="#000000" stroke="none">
<path d="M1009 2480 c-259 -56 -470 -172 -652 -359 -180 -186 -281 -377 -337
-640 -19 -89 -21 -123 -17 -274 5 -193 24 -287 92 -449 145 -345 443 -612 810
-725 88 -27 95 -28 350 -28 l260 0 103 33 c418 134 718 440 848 867 26 83 28
106 32 305 4 243 -4 304 -65 470 -109 296 -327 540 -613 687 -104 53 -188 82
-325 113 -121 26 -361 26 -486 0z m439 -110 c147 -24 343 -106 472 -198 282
-202 471 -558 470 -890 0 -119 -16 -158 -97 -244 -70 -73 -113 -104 -229 -161
-127 -63 -363 -137 -397 -124 -8 3 -25 27 -38 52 -31 62 -108 130 -189 169
-62 30 -71 31 -190 31 -119 0 -128 -1 -190 -31 -83 -40 -153 -102 -192 -171
-16 -29 -34 -53 -40 -53 -23 0 -180 44 -258 72 -259 94 -413 227 -449 388 -12
54 2 209 30 319 72 288 266 543 534 703 108 65 273 124 385 138 85 11 308 11
378 0z m-1220 -1501 c115 -87 288 -163 490 -214 107 -28 112 -30 112 -55 0
-46 44 -133 95 -189 165 -178 485 -179 646 -3 58 63 71 87 93 164 l17 56 77
17 c180 40 405 135 520 220 35 26 65 45 67 43 1 -2 -14 -43 -35 -93 -174 -422
-553 -688 -1015 -710 -146 -7 -244 6 -387 51 -285 90 -531 302 -672 578 -45
88 -79 176 -69 176 3 0 31 -19 61 -41z m1178 -9 c182 -89 199 -316 29 -415
-140 -82 -315 -65 -419 41 -51 51 -66 90 -66 167 0 56 4 69 32 108 38 53 61
73 112 100 88 47 215 47 312 -1z"/>
<path d="M1170 809 c-39 -16 -89 -58 -105 -89 -8 -16 -15 -53 -15 -83 0 -44 5
-62 30 -95 42 -58 81 -76 165 -77 82 0 133 21 172 71 94 124 0 284 -167 283
-30 0 -66 -5 -80 -10z m164 -33 c40 -17 72 -56 87 -107 10 -33 9 -43 -12 -86
-45 -89 -164 -121 -256 -68 -102 61 -102 193 1 256 37 23 131 26 180 5z"/>
</g>
</svg>
